<svg width="304" height="108" viewBox="0 0 304 108" fill="none" xmlns="http://www.w3.org/2000/svg">
<path d="M0 94.3846V13.6154H30.742C36.8904 13.6154 42.1742 14.8077 46.5934 17.1923C51.0766 19.5769 54.5351 23.0385 56.9688 27.5769C59.4026 32.0385 60.6194 37.3462 60.6194 43.5C60.6194 49.5769 59.4026 54.8462 56.9688 59.3077C54.5351 63.7692 51.0766 67.2308 46.5934 69.6923C42.1742 72.0769 36.8904 73.2692 30.742 73.2692H10.5676L19.0216 63.3461V94.3846H0ZM19.0216 65.7692L10.5676 55.2692H29.5892C33.56 55.2692 36.5061 54.2308 38.4275 52.1538C40.4129 50.0769 41.4057 47.1923 41.4057 43.5C41.4057 39.7308 40.4129 36.8077 38.4275 34.7308C36.5061 32.6538 33.56 31.6154 29.5892 31.6154H10.5676L19.0216 21.1154V65.7692Z" fill="#ED985F"/>
<path d="M154.906 94.3846L133.099 13.6154H152.697L171.046 83.5385H161.151L180.461 13.6154H197.945L216.198 83.5385H206.688L225.613 13.6154H243.77L221.962 94.3846H201.596L186.033 34.9615H191.509L175.273 94.3846H154.906Z" fill="#ED985F"/>
<path d="M274.219 96C268.711 96 263.395 95.1923 258.271 93.5769C253.212 91.8846 249.081 89.7308 245.878 87.1154L252.123 70.2692C255.133 72.5769 258.591 74.5 262.498 76.0385C266.469 77.5 270.408 78.2308 274.315 78.2308C276.941 78.2308 279.054 77.9615 280.655 77.4231C282.256 76.8077 283.409 76.0385 284.114 75.1154C284.882 74.1154 285.267 72.9615 285.267 71.6538C285.267 69.8077 284.562 68.3461 283.153 67.2692C281.744 66.1923 279.919 65.3077 277.677 64.6154C275.436 63.9231 272.938 63.2308 270.184 62.5385C267.494 61.8462 264.772 60.9615 262.018 59.8846C259.328 58.8077 256.862 57.4231 254.621 55.7308C252.379 53.9615 250.554 51.6923 249.145 48.9231C247.736 46.0769 247.031 42.5 247.031 38.1923C247.031 33.3462 248.12 28.9615 250.298 25.0385C252.539 21.1154 255.87 17.9615 260.289 15.5769C264.708 13.1923 270.216 12 276.813 12C281.232 12 285.555 12.6154 289.782 13.8462C294.073 15 297.884 16.7308 301.214 19.0385L295.354 36C292.152 33.9231 288.981 32.3846 285.843 31.3846C282.705 30.3077 279.663 29.7692 276.716 29.7692C274.091 29.7692 271.977 30.1154 270.376 30.8077C268.775 31.4231 267.622 32.2692 266.917 33.3462C266.213 34.4231 265.861 35.6538 265.861 37.0385C265.861 38.8077 266.533 40.2308 267.878 41.3077C269.287 42.3077 271.112 43.1538 273.354 43.8462C275.66 44.4615 278.157 45.1154 280.847 45.8077C283.601 46.5 286.323 47.3846 289.013 48.4615C291.767 49.4615 294.265 50.8462 296.507 52.6154C298.748 54.3077 300.542 56.5769 301.886 59.4231C303.295 62.1923 304 65.6923 304 69.9231C304 74.6154 302.879 78.9615 300.638 82.9615C298.46 86.8846 295.162 90.0385 290.742 92.4231C286.387 94.8077 280.879 96 274.219 96Z" fill="#ED985F"/>
<path d="M129.082 41.2383C128.38 38.764 127.199 36.9748 125.668 36.0652C124.965 35.6486 124.227 35.4375 123.475 35.4375C120.268 35.4375 117.01 39.3751 115.366 45.2364C113.333 52.4969 114.515 59.6086 118.117 61.7787C118.841 62.2156 119.617 62.4375 120.422 62.4375C123.689 62.4375 127.009 58.8265 128.683 53.4524C129.948 49.3849 130.097 44.8194 129.082 41.2383Z" fill="#ED985F"/>
<path d="M82.6338 45.2364C80.9906 39.3751 77.7319 35.4375 74.5248 35.4375C73.7732 35.4375 73.0353 35.6486 72.3324 36.0652C70.8005 36.9748 69.6203 38.764 68.9183 41.2383C67.9028 44.8194 68.0517 49.3849 69.3171 53.4524C70.9916 58.8265 74.3116 62.4375 77.5781 62.4375C78.3834 62.4375 79.159 62.2156 79.8834 61.7787C83.485 59.6086 84.6675 52.4969 82.6338 45.2364Z" fill="#ED985F"/>
<path d="M89.7665 44.4237C90.0636 44.4407 90.3634 44.43 90.6575 44.3918C92.3851 44.1684 93.9471 43.0009 95.175 41.0151C97.1563 37.8108 97.7064 32.794 97.2892 27.6334C96.6515 19.6805 93.4696 13.7449 89.1946 13.5C89.1946 13.5 88.5842 13.5017 88.2737 13.5407C86.3877 13.7862 84.6732 15.077 83.3157 17.2733C81.3473 20.4586 80.4012 25.1982 80.7848 29.9514C81.4152 37.8146 85.3605 44.1712 89.7665 44.4237Z" fill="#ED985F"/>
<path d="M99 50.625C88.75 50.625 78.5 66.6719 78.5 82.0817C78.5 86.6797 80.2508 90.3781 81.9701 91.8939C84.0935 93.7651 85.59 94.5 88.7026 94.5C92.4011 94.5 93.3992 92.796 95.1306 91.2927C96.3829 90.2059 97.4644 89.2666 99.0002 89.2666C100.536 89.2666 101.617 90.2059 102.87 91.2927C104.601 92.796 105.599 94.5 109.298 94.5C112.41 94.5 113.907 93.7651 116.03 91.8939C117.749 90.3781 119.5 86.6797 119.5 82.0817C119.5 66.6719 109.25 50.625 99 50.625Z" fill="#ED985F"/>
<path d="M107.373 44.3528C107.667 44.3912 107.967 44.4017 108.264 44.3846C112.67 44.1323 116.616 37.7755 117.246 29.9128C117.629 25.1596 116.683 20.4198 114.715 17.2347C113.357 15.0384 111.706 13.8116 109.82 13.566C109.51 13.5268 108.836 13.5002 108.836 13.5002C104.561 13.7451 101.379 19.6417 100.741 27.5944C100.324 32.7552 100.874 37.7717 102.855 40.9761C104.084 42.9619 105.646 44.1294 107.373 44.3528Z" fill="#ED985F"/>
</svg>
